<svg id="Layer_1" data-name="Layer 1" xmlns="http://www.w3.org/2000/svg" xmlns:xlink="http://www.w3.org/1999/xlink" viewBox="0 0 212.49 80"><defs><style>.cls-1{fill:none;}.cls-2{clip-path:url(#clip-path);}.cls-3{fill:#c19977;}.cls-4{font-size:47.7px;fill:#fff;font-family:AraAlmBon-Regular, Ara Alm Bon;}</style><clipPath id="clip-path" transform="translate(0 0)"><rect class="cls-1" width="216" height="80"/></clipPath></defs><g class="cls-2"><path class="cls-3" d="M30.49,0A16.21,16.21,0,0,0,26,.66a15.33,15.33,0,0,0-4,1.86c1.32,3.36,4.7,7.62,8.61,11.26A54.74,54.74,0,0,0,42.4,22.26h0l0,0a12.93,12.93,0,0,1,5.88,6.15,18.11,18.11,0,0,1,1.41,5,30.31,30.31,0,0,1,7-4.13,33,33,0,0,0-2.13-9.71A33,33,0,0,0,42.14,3.72,21.29,21.29,0,0,0,30.49,0ZM17.41,7.24a19.33,19.33,0,0,0-2.14,4.51c-1.83,5.49-1.68,12.37,1,19.27a34.51,34.51,0,0,0,6.64,10.86,28.84,28.84,0,0,1,7.86,3.74A28.74,28.74,0,0,1,35.88,50q.73.18,1.47.3A40.07,40.07,0,0,1,41,43.18a42,42,0,0,1,2.95-4.06c0-.89,0-1.75,0-2.57A15.5,15.5,0,0,0,42.75,31a6.29,6.29,0,0,0-3.09-3.23l.07,0a57.8,57.8,0,0,1-13.31-9.52,43.77,43.77,0,0,1-9-11ZM65.3,30.46A19.12,19.12,0,0,0,58.07,32,32.82,32.82,0,0,0,43.56,44.83a36.59,36.59,0,0,0-4.34,9.67c3.52,5.9,4.38,12.67,1.85,18.36a12.76,12.76,0,0,0,1.37,1.65c3.7-3.2,8-5.84,11-8.56a15.5,15.5,0,0,0,3.61-4.35,6.3,6.3,0,0,0,.58-4.44l0-.1V57c-1.38-10,1-15.84,4.57-19.42,2.83-2.88,5.65-4.4,7.6-6.41a13.79,13.79,0,0,0-4.47-.67ZM75,34.55c-2.85,3.54-6.36,5.17-8.46,7.3-2.41,2.46-4.07,5.41-2.86,14.22a13,13,0,0,1-1.12,8.27,21.12,21.12,0,0,1-5,6.2c-3,2.7-6.49,5-9.4,7.26A17.15,17.15,0,0,0,59,76.66a32.71,32.71,0,0,0,14.5-12.8A32.75,32.75,0,0,0,79,45.31a16.92,16.92,0,0,0-4-10.76ZM63.7,56.07l0-.16,0,.2v0Zm-48-12.22a17.59,17.59,0,0,0-8.6,2h0a47.26,47.26,0,0,1,5.47.17,10.64,10.64,0,0,1,6.54,3.41c1.89,2.14,3.19,5.18,4.1,9.54l0,.1v.1c.42,3.05,2.36,4.81,5.73,6.46a66.78,66.78,0,0,0,10,3.43c1.56-7-2.15-15.57-10.07-20.91a24.38,24.38,0,0,0-13.29-4.32ZM1.84,50.94C-2.48,58.39,1,69.32,10.42,75.68c9.28,6.26,20.51,5.52,25.91-1a60.45,60.45,0,0,1-10-3.53c-4.24-2.08-8.28-5.57-9.09-11-.78-3.71-1.81-5.69-2.67-6.66a3.73,3.73,0,0,0-2.75-1.38C10.59,52,8.92,52.1,7,52a13,13,0,0,1-5.11-1.09Zm15.38,9.25v.05l0-.2a.77.77,0,0,0,0,.15Z" transform="translate(0 0)"/></g><text class="cls-4" transform="translate(81.77 58.42) scale(0.79 1)">توا كيرب</text></svg>